<svg id="visual" viewBox="0 0 960 540" width="960" height="540" xmlns="http://www.w3.org/2000/svg" xmlns:xlink="http://www.w3.org/1999/xlink" version="1.1"><rect x="0" y="0" width="960" height="540" fill="#272727"></rect><path d="M0 259L22.8 257.8C45.7 256.7 91.3 254.3 137 258.5C182.7 262.7 228.3 273.3 274 276.3C319.7 279.3 365.3 274.7 411.2 271.3C457 268 503 266 548.8 272.7C594.7 279.3 640.3 294.7 686 294.2C731.7 293.7 777.3 277.3 823 269.2C868.7 261 914.3 261 937.2 261L960 261L960 541L937.2 541C914.3 541 868.7 541 823 541C777.3 541 731.7 541 686 541C640.3 541 594.7 541 548.8 541C503 541 457 541 411.2 541C365.3 541 319.7 541 274 541C228.3 541 182.7 541 137 541C91.3 541 45.7 541 22.8 541L0 541Z" fill="#212121"></path><path d="M0 300L22.8 306.3C45.7 312.7 91.3 325.3 137 331.7C182.7 338 228.3 338 274 339.2C319.7 340.3 365.3 342.7 411.2 336.2C457 329.7 503 314.3 548.8 307.8C594.7 301.3 640.3 303.7 686 305.8C731.7 308 777.3 310 823 315C868.7 320 914.3 328 937.2 332L960 336L960 541L937.2 541C914.3 541 868.7 541 823 541C777.3 541 731.7 541 686 541C640.3 541 594.7 541 548.8 541C503 541 457 541 411.2 541C365.3 541 319.7 541 274 541C228.3 541 182.7 541 137 541C91.3 541 45.7 541 22.8 541L0 541Z" fill="#1d1d1d"></path><path d="M0 364L22.8 366.8C45.7 369.7 91.3 375.3 137 370.8C182.7 366.3 228.3 351.7 274 350.5C319.7 349.3 365.3 361.7 411.2 366.8C457 372 503 370 548.8 368.3C594.7 366.7 640.3 365.3 686 363.7C731.7 362 777.3 360 823 361.5C868.7 363 914.3 368 937.2 370.5L960 373L960 541L937.2 541C914.3 541 868.7 541 823 541C777.3 541 731.7 541 686 541C640.3 541 594.7 541 548.8 541C503 541 457 541 411.2 541C365.3 541 319.7 541 274 541C228.3 541 182.7 541 137 541C91.3 541 45.7 541 22.8 541L0 541Z" fill="#1a1a1a"></path><path d="M0 410L22.8 406.5C45.7 403 91.3 396 137 398C182.7 400 228.3 411 274 415.5C319.7 420 365.3 418 411.2 414.7C457 411.3 503 406.7 548.8 408C594.7 409.3 640.3 416.7 686 414.2C731.7 411.7 777.3 399.3 823 396.5C868.7 393.7 914.3 400.3 937.2 403.7L960 407L960 541L937.2 541C914.3 541 868.7 541 823 541C777.3 541 731.7 541 686 541C640.3 541 594.7 541 548.8 541C503 541 457 541 411.2 541C365.3 541 319.7 541 274 541C228.3 541 182.7 541 137 541C91.3 541 45.7 541 22.8 541L0 541Z" fill="#161616"></path><path d="M0 459L22.8 454.8C45.7 450.7 91.3 442.3 137 440.3C182.7 438.3 228.3 442.7 274 441.7C319.7 440.7 365.3 434.3 411.2 436.2C457 438 503 448 548.8 447.5C594.7 447 640.3 436 686 437.2C731.7 438.3 777.3 451.7 823 455.7C868.7 459.7 914.3 454.3 937.2 451.7L960 449L960 541L937.2 541C914.3 541 868.7 541 823 541C777.3 541 731.7 541 686 541C640.3 541 594.7 541 548.8 541C503 541 457 541 411.2 541C365.3 541 319.7 541 274 541C228.3 541 182.7 541 137 541C91.3 541 45.7 541 22.8 541L0 541Z" fill="#121212"></path><path d="M0 488L22.8 487.2C45.7 486.3 91.3 484.7 137 486.5C182.7 488.3 228.3 493.7 274 494.2C319.7 494.7 365.3 490.3 411.2 488C457 485.7 503 485.3 548.8 487.2C594.7 489 640.3 493 686 491.5C731.7 490 777.3 483 823 480C868.7 477 914.3 478 937.2 478.5L960 479L960 541L937.2 541C914.3 541 868.7 541 823 541C777.3 541 731.7 541 686 541C640.3 541 594.7 541 548.8 541C503 541 457 541 411.2 541C365.3 541 319.7 541 274 541C228.3 541 182.7 541 137 541C91.3 541 45.7 541 22.8 541L0 541Z" fill="#0c0c0c"></path></svg>